<svg version="1.0" preserveAspectRatio="xMidYMid meet" height="1080" viewBox="0 0 1440 809.999993" zoomAndPan="magnify" width="1920" xmlns:xlink="http://www.w3.org/1999/xlink" xmlns="http://www.w3.org/2000/svg"><defs><g></g></defs><g fill-opacity="1" fill="#705d5d"><g transform="translate(4.253487, 502.192113)"><g><path d="M 111.96875 -104.953125 L 193.234375 -104.953125 L 193.234375 0 L 166.09375 0 L 162.125 -24.359375 C 147.125 -4.679688 126.609375 5.15625 100.578125 5.15625 C 74.554688 5.15625 53.269531 -4.128906 36.71875 -22.703125 C 20.175781 -41.273438 11.90625 -65.957031 11.90625 -96.75 C 11.90625 -127.539062 20.421875 -152.398438 37.453125 -171.328125 C 54.484375 -190.253906 77.6875 -199.71875 107.0625 -199.71875 C 132.207031 -199.71875 152.28125 -193.382812 167.28125 -180.71875 C 182.28125 -168.0625 190.664062 -152.554688 192.4375 -134.203125 L 151.9375 -134.203125 C 149.46875 -143.910156 144.328125 -151.648438 136.515625 -157.421875 C 128.703125 -163.203125 119.59375 -166.09375 109.1875 -166.09375 C 91.800781 -166.09375 78.144531 -159.875 68.21875 -147.4375 C 58.289062 -135 53.328125 -117.96875 53.328125 -96.34375 C 53.328125 -74.820312 58.113281 -58.257812 67.6875 -46.65625 C 77.269531 -35.050781 91.367188 -29.25 109.984375 -29.25 C 120.484375 -29.25 130.097656 -32.644531 138.828125 -39.4375 C 147.566406 -46.226562 153.703125 -57.125 157.234375 -72.125 L 111.96875 -72.125 Z M 111.96875 -104.953125"></path></g></g></g><g fill-opacity="1" fill="#705d5d"><g transform="translate(187.819246, 502.192113)"><g><path d="M 162.921875 -160.140625 L 59.6875 -160.140625 L 59.6875 -119.25 L 154.578125 -119.25 L 154.578125 -84.828125 L 59.6875 -84.828125 L 59.6875 -34.40625 L 167.546875 -34.40625 L 167.546875 0 L 19.859375 0 L 19.859375 -194.546875 L 162.921875 -194.546875 Z M 162.921875 -160.140625"></path></g></g></g><g fill-opacity="1" fill="#705d5d"><g transform="translate(339.092384, 502.192113)"><g><path d="M 111.96875 -104.953125 L 193.234375 -104.953125 L 193.234375 0 L 166.09375 0 L 162.125 -24.359375 C 147.125 -4.679688 126.609375 5.15625 100.578125 5.15625 C 74.554688 5.15625 53.269531 -4.128906 36.71875 -22.703125 C 20.175781 -41.273438 11.90625 -65.957031 11.90625 -96.75 C 11.90625 -127.539062 20.421875 -152.398438 37.453125 -171.328125 C 54.484375 -190.253906 77.6875 -199.71875 107.0625 -199.71875 C 132.207031 -199.71875 152.28125 -193.382812 167.28125 -180.71875 C 182.28125 -168.0625 190.664062 -152.554688 192.4375 -134.203125 L 151.9375 -134.203125 C 149.46875 -143.910156 144.328125 -151.648438 136.515625 -157.421875 C 128.703125 -163.203125 119.59375 -166.09375 109.1875 -166.09375 C 91.800781 -166.09375 78.144531 -159.875 68.21875 -147.4375 C 58.289062 -135 53.328125 -117.96875 53.328125 -96.34375 C 53.328125 -74.820312 58.113281 -58.257812 67.6875 -46.65625 C 77.269531 -35.050781 91.367188 -29.25 109.984375 -29.25 C 120.484375 -29.25 130.097656 -32.644531 138.828125 -39.4375 C 147.566406 -46.226562 153.703125 -57.125 157.234375 -72.125 L 111.96875 -72.125 Z M 111.96875 -104.953125"></path></g></g></g><g fill-opacity="1" fill="#705d5d"><g transform="translate(522.65816, 502.192113)"><g><path d="M 162.921875 -160.140625 L 59.6875 -160.140625 L 59.6875 -119.25 L 154.578125 -119.25 L 154.578125 -84.828125 L 59.6875 -84.828125 L 59.6875 -34.40625 L 167.546875 -34.40625 L 167.546875 0 L 19.859375 0 L 19.859375 -194.546875 L 162.921875 -194.546875 Z M 162.921875 -160.140625"></path></g></g></g><g fill-opacity="1" fill="#705d5d"><g transform="translate(673.931282, 502.192113)"><g><path d="M 57.96875 0 L 17.34375 0 L 17.34375 -39.578125 L 57.96875 -39.578125 Z M 57.96875 0"></path></g></g></g><g fill-opacity="1" fill="#705d5d"><g transform="translate(721.047446, 502.192113)"><g></g></g></g><g fill-opacity="1" fill="#705d5d"><g transform="translate(765.649046, 502.192113)"><g><path d="M 58.890625 -118.453125 L 106.546875 -118.453125 C 115.804688 -118.453125 122.90625 -120.347656 127.84375 -124.140625 C 132.789062 -127.929688 135.265625 -133.269531 135.265625 -140.15625 C 135.265625 -147.039062 132.988281 -152.242188 128.4375 -155.765625 C 123.894531 -159.296875 116.242188 -161.0625 105.484375 -161.0625 L 58.890625 -161.0625 Z M 58.890625 -33.609375 L 108.65625 -33.609375 C 118.625 -33.609375 126.320312 -35.859375 131.75 -40.359375 C 137.175781 -44.859375 139.890625 -52.097656 139.890625 -62.078125 C 139.890625 -69.304688 137.285156 -75.035156 132.078125 -79.265625 C 126.878906 -83.503906 119.734375 -85.625 110.640625 -85.625 L 58.890625 -85.625 Z M 19.859375 -194.546875 L 114.34375 -194.546875 C 133.84375 -194.546875 148.707031 -189.847656 158.9375 -180.453125 C 169.175781 -171.054688 174.296875 -159.164062 174.296875 -144.78125 C 174.296875 -124.9375 166.359375 -111.660156 150.484375 -104.953125 C 170.503906 -97.273438 180.515625 -81.523438 180.515625 -57.703125 C 180.515625 -49.941406 179.035156 -42.570312 176.078125 -35.59375 C 173.128906 -28.625 168.546875 -22.160156 162.328125 -16.203125 C 156.109375 -10.253906 148.671875 -6.066406 140.015625 -3.640625 C 131.367188 -1.210938 118.753906 0 102.171875 0 L 19.859375 0 Z M 19.859375 -194.546875"></path></g></g></g><g fill-opacity="1" fill="#705d5d"><g transform="translate(928.568741, 502.192113)"><g><path d="M 162.921875 -160.140625 L 59.6875 -160.140625 L 59.6875 -119.25 L 154.578125 -119.25 L 154.578125 -84.828125 L 59.6875 -84.828125 L 59.6875 -34.40625 L 167.546875 -34.40625 L 167.546875 0 L 19.859375 0 L 19.859375 -194.546875 L 162.921875 -194.546875 Z M 162.921875 -160.140625"></path></g></g></g><g fill-opacity="1" fill="#705d5d"><g transform="translate(1079.841913, 502.192113)"><g><path d="M 70.546875 -73.71875 L 120.171875 -73.71875 L 95.953125 -150.75 L 95.421875 -150.75 Z M 46.1875 0 L 3.3125 0 L 72.65625 -194.546875 L 119.640625 -194.546875 L 188.203125 0 L 144 0 L 131.546875 -40.09375 L 59.6875 -40.09375 Z M 46.1875 0"></path></g></g></g><g fill-opacity="1" fill="#705d5d"><g transform="translate(1243.158586, 502.192113)"><g><path d="M 107.328125 -108.921875 C 118.003906 -108.921875 125.921875 -110.945312 131.078125 -115 C 136.242188 -119.0625 138.828125 -125.90625 138.828125 -135.53125 C 138.828125 -143.46875 136.421875 -149.707031 131.609375 -154.25 C 126.804688 -158.789062 119.726562 -161.0625 110.375 -161.0625 L 59.6875 -161.0625 L 59.6875 -108.921875 Z M 19.859375 -194.546875 L 118.1875 -194.546875 C 138.21875 -194.546875 153.4375 -189.1875 163.84375 -178.46875 C 174.257812 -167.75 179.46875 -154.800781 179.46875 -139.625 C 179.46875 -117.039062 169.453125 -101.601562 149.421875 -93.3125 C 158.679688 -89.78125 165.097656 -84.679688 168.671875 -78.015625 C 172.242188 -71.359375 174.03125 -59.335938 174.03125 -41.953125 C 174.03125 -24.660156 174.671875 -14.488281 175.953125 -11.4375 C 177.234375 -8.394531 179.460938 -6.300781 182.640625 -5.15625 L 182.640625 0 L 137.765625 0 C 134.859375 -8.738281 133.40625 -21.351562 133.40625 -37.84375 C 133.40625 -51.695312 132.476562 -60.628906 130.625 -64.640625 C 128.769531 -68.660156 125.703125 -71.570312 121.421875 -73.375 C 117.148438 -75.1875 110.554688 -76.09375 101.640625 -76.09375 L 59.6875 -76.09375 L 59.6875 0 L 19.859375 0 Z M 19.859375 -194.546875"></path></g></g></g></svg>